<?xml version="1.0" encoding="utf-8"?>
<!-- Generator: Adobe Illustrator 16.0.0, SVG Export Plug-In . SVG Version: 6.00 Build 0)  -->
<!DOCTYPE svg PUBLIC "-//W3C//DTD SVG 1.1//EN" "http://www.w3.org/Graphics/SVG/1.1/DTD/svg11.dtd">
<svg version="1.1" id="Layer_1" xmlns="http://www.w3.org/2000/svg" xmlns:xlink="http://www.w3.org/1999/xlink" x="0px" y="0px"
	 width="263.9px" height="395.5px" viewBox="0 0 263.9 395.5" style="enable-background:new 0 0 263.9 395.5;" xml:space="preserve"
	>
<style type="text/css">
<![CDATA[
	.st0{fill:#B4812C;}
	.st1{fill:#FDCC9A;}
	.st2{fill:#666766;}
	.st3{fill:#CB9966;}
	.st4{fill:#69C9CA;}
	.st5{fill:#CD6632;}
	.st6{fill:#333333;}
	.st7{opacity:0.4;fill:#2B2B2B;}
]]>
</style>
<g>
	<polygon class="st4" points="113.9,284.9 7.9,391.6 8,275.6 	"/>
	<polygon class="st5" points="113.9,284.9 185.9,212.1 259.6,297.9 	"/>
	<polygon class="st3" points="113.9,284.9 8,275.6 8.2,110.9 51,117.4 	"/>
	<polygon class="st1" points="185.9,212.1 113.9,284.9 51,117.4 51,117.4 77.2,84.6 	"/>
	<polygon class="st2" points="77.2,84.6 51,117.4 51,117.4 8.3,3.8 	"/>
	<polygon class="st6" points="51,117.4 8.2,110.9 8.3,3.8 	"/>
	<polygon class="st7" points="8.2,110.9 8.3,3.8 8.2,110.9 	"/>
	<polygon class="st7" points="51,117.4 51,117.4 8.3,3.8 	"/>
	<path class="st0" d="M16.3,3.3"/>
</g>
</svg>
